Coordinates
version=1
nRows=8
nColumns=40
inDegrees=yes

Units are S.I. units (second, meters, Newtons, ...)
If the header above contains a line with 'inDegrees', this indicates whether rotational values are in degrees (yes) or radians (no).

endheader
time	pelvis_tilt	pelvis_list	pelvis_rotation	pelvis_tx	pelvis_ty	pelvis_tz	hip_flexion_r	hip_adduction_r	hip_rotation_r	knee_angle_r	knee_angle_r_beta	ankle_angle_r	subtalar_angle_r	mtp_angle_r	hip_flexion_l	hip_adduction_l	hip_rotation_l	knee_angle_l	knee_angle_l_beta	ankle_angle_l	subtalar_angle_l	mtp_angle_l	lumbar_extension	lumbar_bending	lumbar_rotation	arm_flex_r	arm_add_r	arm_rot_r	elbow_flex_r	pro_sup_r	wrist_flex_r	wrist_dev_r	arm_flex_l	arm_add_l	arm_rot_l	elbow_flex_l	pro_sup_l	wrist_flex_l	wrist_dev_l
      4.00833333	      4.34456032	      4.16073906	      5.37784005	     -0.34349824	      1.05473385	      0.03881031	     42.98523692	    -15.69876510	     -7.76776516	     49.95960477	      0.87195960	    -14.61506192	     -6.94055088	      0.00000000	     61.95090087	     -6.16801967	      4.69233764	    108.95750387	      1.90166719	     -7.06781979	      5.81263694	      0.00000000	    -68.58743759	      0.49687959	     -3.29258197	     85.02954300	     -7.97760399	      1.76439071	     46.44396516	     88.55152852	      0.00000000	      0.00000000	     89.57313778	     -4.66204732	     10.52938169	     41.19341302	     84.38643711	      0.00000000	      0.00000000
      4.01666667	      4.85314527	      4.43531905	      5.26235674	     -0.34252424	      1.05511673	      0.03966129	     39.56969434	    -15.61207459	     -8.64091766	     46.94280060	      0.81930643	    -15.32408775	     -6.50598083	      0.00000000	     63.73042251	     -6.36181930	      4.75599281	    111.31493549	      1.94281213	     -6.14461797	      6.43917496	      0.00000000	    -69.07508561	     -0.00092195	     -3.46066993	     84.53864494	     -7.94897458	      0.68359932	     46.83593643	     88.56178944	      0.00000000	      0.00000000	     89.55179254	     -4.49579317	     10.71784449	     41.33809117	     84.49044453	      0.00000000	      0.00000000
      4.02500000	      4.95083884	      5.22478799	      4.84745120	     -0.34157606	      1.05487655	      0.04041764	     37.12052952	    -15.88263894	     -8.73436063	     44.56272464	      0.77776627	    -15.93894617	     -6.34039582	      0.00000000	     65.96362641	     -6.48657755	      4.03989243	    113.38978063	      1.97902501	     -5.39156134	      6.49329202	      0.00000000	    -69.17856540	     -1.01144811	     -4.05500957	     84.04490698	     -8.12963187	      0.43802113	     47.15525372	     88.53126426	      0.00000000	      0.00000000	     89.51918523	     -4.31808449	     10.82333815	     41.31314492	     84.37871431	      0.00000000	      0.00000000
      4.03333333	      5.53919050	      5.20588644	      4.97134822	     -0.34075051	      1.05636034	      0.04065028	     33.61736390	    -15.74493967	    -10.21735049	     41.79199215	      0.72940786	    -17.44989179	     -6.10963937	      0.00000000	     67.46104120	     -6.53352811	      4.34417564	    114.90436774	      2.00545954	     -3.00813056	      6.97059817	      0.00000000	    -69.82980641	     -1.06114207	     -4.01374065	     83.72558676	     -8.08174912	     -0.66402095	     47.49130464	     88.58229876	      0.00000000	      0.00000000	     89.52684998	     -4.16622495	     11.02360055	     41.48780331	     84.61503117	      0.00000000	      0.00000000
      4.04166667	      5.35512825	      5.64389598	      4.77286416	     -0.34045308	      1.05666518	      0.04093367	     31.56322111	    -15.92953056	    -10.91947054	     39.70786654	      0.69303301	    -18.76644892	     -6.16415872	      0.00000000	     69.74565861	     -6.56453929	      3.82606725	    116.06877240	      2.02578224	     -2.85361777	      6.95690340	      0.00000000	    -69.75146545	     -1.66681298	     -4.36119425	     83.48096277	     -8.21035658	     -0.93330217	     47.69138157	     88.57915556	      0.00000000	      0.00000000	     89.52238140	     -4.01819034	     11.11483286	     41.55731862	     84.62638871	      0.00000000	      0.00000000
      4.05000000	      5.22666013	      6.10938100	      4.59060781	     -0.34002639	      1.05745124	      0.04105014	     29.65362315	    -16.14738878	    -11.39832032	     38.03653972	      0.66386285	    -19.95551320	     -6.26740086	      0.00000000	     71.84511466	     -6.60824732	      3.16246029	    116.80542066	      2.03863917	     -2.56983510	      6.57031141	      0.00000000	    -69.77770237	     -2.22948741	     -4.72571803	     83.29122458	     -8.34807419	     -1.19800407	     47.82458776	     88.57872320	      0.00000000	      0.00000000	     89.53636946	     -3.88032884	     11.16443902	     41.63316495	     84.59385357	      0.00000000	      0.00000000
      4.05833333	      5.05694942	      6.57717583	      4.42542443	     -0.33965481	      1.05844773	      0.04094921	     28.01308059	    -16.40562554	    -11.65958685	     36.82342168	      0.64268995	    -20.69516332	     -6.42304466	      0.00000000	     73.78500140	     -6.59539825	      2.41556550	    117.12685947	      2.04424934	     -2.04498750	      6.36027734	      0.00000000	    -69.78687325	     -2.74434291	     -5.11546081	     83.19355713	     -8.46173693	     -1.33681981	     47.86427662	     88.56562934	      0.00000000	      0.00000000	     89.55375000	     -3.74716933	     11.18210385	     41.69115049	     84.53745746	      0.00000000	      0.00000000
      4.06666667	      4.80451841	      6.89898978	      4.19177282	     -0.33950532	      1.05953869	      0.04117334	     26.64893437	    -16.47691026	    -11.71455625	     35.97440125	      0.62787175	    -20.90690043	     -6.57004180	      0.00000000	     75.72416065	     -6.72065724	      1.79136190	    117.09110255	      2.04362526	     -1.72840942	      6.18507453	      0.00000000	    -69.72945814	     -3.25927564	     -5.36332975	     83.17506998	     -8.55736680	     -1.39571590	     47.81806330	     88.52385176	      0.00000000	      0.00000000	     89.59293014	     -3.65509838	     11.15323479	     41.74644216	     84.43254708	      0.00000000	      0.00000000
